<svg id="base" xmlns="http://www.w3.org/2000/svg" viewBox="0 0 311.93 311.93"><title>PCCS1</title><g id="pccs2"><path d="M229.71,226.94h-80v-0.12a154.2,154.2,0,0,1,14.48-65.58L236.71,195a74.77,74.77,0,0,0-7,31.8v0.12Z" transform="translate(-149.21 -70.86)" style="fill:#fff;stroke:#231815;stroke-miterlimit:10"/></g><g id="pccs4"><path d="M239.74,189.19l-69.29-40A157,157,0,0,1,215.81,99.6l46,65.44A76.45,76.45,0,0,0,239.74,189.19Z" transform="translate(-149.21 -70.86)" style="fill:#fff;stroke:#231815;stroke-miterlimit:10"/></g><g id="pccs6"><path d="M267.38,161.48L227.23,92.29A153.82,153.82,0,0,1,291.44,72l7,79.69A74.38,74.38,0,0,0,267.38,161.48Z" transform="translate(-149.21 -70.86)" style="fill:#fff;stroke:#231815;stroke-miterlimit:10"/></g><g id="pccs8"><path d="M336.94,158.34a74.77,74.77,0,0,0-31.77-7H305v-80h0.18a154.21,154.21,0,0,1,65.5,14.44Z" transform="translate(-149.21 -70.86)" style="fill:#fff;stroke:#231815;stroke-miterlimit:10"/></g><g id="pccs10"><path d="M366.94,183.45a76.46,76.46,0,0,0-24.17-22.08l39.95-69.31a157,157,0,0,1,49.63,45.33Z" transform="translate(-149.21 -70.86)" style="fill:#fff;stroke:#231815;stroke-miterlimit:10"/></g><g id="pccs12"><path d="M380.34,220A74.39,74.39,0,0,0,370.5,189l69.17-40.19A153.81,153.81,0,0,1,460,213Z" transform="translate(-149.21 -70.86)" style="fill:#fff;stroke:#231815;stroke-miterlimit:10"/></g><g id="pccs14"><path d="M446.1,292.54L373.61,258.7a74.77,74.77,0,0,0,7-31.87v-0.24h80v0.24A154.19,154.19,0,0,1,446.1,292.54Z" transform="translate(-149.21 -70.86)" style="fill:#fff;stroke:#231815;stroke-miterlimit:10"/></g><g id="pccs16"><path d="M394.41,354.14l-46-65.48a76.47,76.47,0,0,0,22.12-24.13l69.25,40.06A157,157,0,0,1,394.41,354.14Z" transform="translate(-149.21 -70.86)" style="fill:#fff;stroke:#231815;stroke-miterlimit:10"/></g><g id="pccs18"><path d="M318.76,381.7L311.83,302a74.4,74.4,0,0,0,31.07-9.8L383,361.44A153.8,153.8,0,0,1,318.76,381.7Z" transform="translate(-149.21 -70.86)" style="fill:#fff;stroke:#231815;stroke-miterlimit:10"/></g><g id="pccs20"><path d="M305.23,382.29h-0.06a154.2,154.2,0,0,1-65.65-14.51l33.81-72.5a74.78,74.78,0,0,0,31.84,7Z" transform="translate(-149.21 -70.86)" style="fill:#fff;stroke:#231815;stroke-miterlimit:10"/></g><g id="pccs22"><path d="M227.49,361.51a157,157,0,0,1-49.58-45.38l65.46-46a76.49,76.49,0,0,0,24.15,22.11Z" transform="translate(-149.21 -70.86)" style="fill:#fff;stroke:#231815;stroke-miterlimit:10"/></g><g id="pccs24"><path d="M170.6,304.71a153.8,153.8,0,0,1-20.3-64.22l79.7-7a74.39,74.39,0,0,0,9.81,31.06Z" transform="translate(-149.21 -70.86)" style="fill:#fff;stroke:#231815;stroke-miterlimit:10"/></g></svg>