<?xml version="1.0" encoding="utf-8"?>
<!-- Generator: Adobe Illustrator 20.1.0, SVG Export Plug-In . SVG Version: 6.00 Build 0)  -->
<svg version="1.1" id="base3" xmlns="http://www.w3.org/2000/svg" xmlns:xlink="http://www.w3.org/1999/xlink" x="0px" y="0px"
	 viewBox="0 0 222.2 194" style="enable-background:new 0 0 222.2 194;" xml:space="preserve">
<style type="text/css">
	.st0{fill:#FFFFFF;stroke:#231815;stroke-miterlimit:10;}
	.st1{enable-background:new    ;}
	.st2{fill:#231815;stroke:#231815;stroke-miterlimit:10;}
	.st3{fill:#FFFFFF;}
</style>
<title>ColorCircle6</title>
<g id="Vividtone">
	<g id="Vivid3">
		<circle class="st0" cx="198.8" cy="100.6" r="20.9"/>
	</g>
	<g class="st1">
		<path d="M190.3,99.8c0.1-0.2,0.1-0.5,0.1-0.6c0-0.3-0.3-0.5-0.9-0.5v-0.3h2.5v0.3c-0.6,0-0.9,0.3-1.3,1.2l-1.7,4.6h-0.7l-1.9-5
			c-0.3-0.7-0.4-0.9-0.9-0.9v-0.3h2.7v0.3c-0.6,0-0.8,0.1-0.8,0.4c0,0.1,0.1,0.4,0.2,0.6l1.4,3.8L190.3,99.8z"/>
		<path d="M194.5,98.3c0,0.7-0.1,1.7-0.1,2.2v2.4c0,1.1,0.1,1.2,0.9,1.2v0.3h-2.7v-0.3c0.8,0,0.9-0.1,0.9-1.2v-3.2
			c0-0.6,0-0.9-0.2-1c-0.1-0.1-0.3-0.1-0.7-0.1v-0.3L194.5,98.3z M193.9,95.8c0.4,0,0.7,0.3,0.7,0.7c0,0.4-0.3,0.7-0.7,0.7
			c-0.4,0-0.7-0.3-0.7-0.7C193.2,96.1,193.5,95.8,193.9,95.8z"/>
		<path d="M200.6,99.8c0.1-0.2,0.1-0.5,0.1-0.6c0-0.3-0.3-0.5-0.9-0.5v-0.3h2.5v0.3c-0.6,0-0.9,0.3-1.3,1.2l-1.7,4.6h-0.7l-1.9-5
			c-0.3-0.7-0.4-0.9-0.9-0.9v-0.3h2.7v0.3c-0.6,0-0.8,0.1-0.8,0.4c0,0.1,0.1,0.4,0.2,0.6l1.4,3.8L200.6,99.8z"/>
		<path d="M204.7,98.3c0,0.7-0.1,1.7-0.1,2.2v2.4c0,1.1,0.1,1.2,0.9,1.2v0.3h-2.7v-0.3c0.8,0,0.9-0.1,0.9-1.2v-3.2
			c0-0.6,0-0.9-0.2-1c-0.1-0.1-0.3-0.1-0.7-0.1v-0.3L204.7,98.3z M204.1,95.8c0.4,0,0.7,0.3,0.7,0.7c0,0.4-0.3,0.7-0.7,0.7
			c-0.4,0-0.7-0.3-0.7-0.7C203.4,96.1,203.7,95.8,204.1,95.8z"/>
		<path d="M212.1,95.7c0,0.8-0.1,1.5-0.1,2.4v4.6c0,1.1,0,1.1,0.1,1.3c0.1,0.2,0.2,0.2,0.6,0.2h0.1v0.3l-1.7,0.1l0-1
			c-0.5,0.8-1.2,1.1-2,1.1c-0.7,0-1.3-0.3-1.8-0.8c-0.4-0.6-0.7-1.3-0.7-2.2c0-2,1.1-3.3,2.7-3.3c0.7,0,1.2,0.2,1.7,0.8v-1.8
			c0-1.2,0-1.2-0.9-1.2v-0.3L212.1,95.7z M209.4,98.6c-1.1,0-1.7,1-1.7,2.9c0,1.9,0.5,2.8,1.6,2.8c1.1,0,1.8-1.1,1.8-2.9
			C211.1,99.6,210.4,98.6,209.4,98.6z"/>
	</g>
</g>
<g id="Brighttone">
	<g id="Bright3">
		<circle class="st0" cx="158.2" cy="53.9" r="20.5"/>
	</g>
	<g class="st1">
		<path d="M142.7,57.8h-0.3c0-0.5,0-0.6,0-2.1v-5.2c0-1,0-1.1-0.9-1.1v-0.3l1.9-0.1c0,0.8-0.1,1.8-0.1,2.4v1.3
			c0.5-0.8,1.1-1.2,1.9-1.2c1.6,0,2.6,1.2,2.6,3.1c0,2-1,3.3-2.7,3.3c-0.8,0-1.4-0.3-2-0.9L142.7,57.8z M143.7,56.9
			c0.3,0.5,0.8,0.8,1.4,0.8c1.1,0,1.7-1,1.7-2.9c0-1.9-0.5-2.9-1.6-2.9c-1.2,0-1.8,1.1-1.8,3C143.3,55.7,143.4,56.4,143.7,56.9z"/>
		<path d="M150.7,51.6c0,0.6,0,0.8,0,1c0,0.1,0,0.2,0,0.4c0.4-0.9,1-1.4,1.8-1.4c0.5,0,0.9,0.3,0.9,0.7c0,0.3-0.3,0.5-0.6,0.5
			c-0.3,0-0.4-0.1-0.4-0.3c-0.1-0.3-0.1-0.3-0.3-0.3c-0.3,0-0.6,0.3-0.9,0.7c-0.2,0.4-0.3,0.9-0.3,1.5v1.9c0,1.1,0.1,1.2,0.9,1.2
			v0.3h-2.7v-0.3c0.8,0,0.9-0.1,0.9-1.2v-3.2c0-0.9-0.1-1.1-0.8-1.1v-0.3L150.7,51.6z"/>
		<path d="M155.8,51.6c0,0.7-0.1,1.7-0.1,2.2v2.4c0,1.1,0.1,1.2,0.9,1.2v0.3h-2.7v-0.3c0.8,0,0.9-0.1,0.9-1.2v-3.2
			c0-0.6,0-0.9-0.2-1c-0.1-0.1-0.3-0.1-0.7-0.1v-0.3L155.8,51.6z M155.2,49.1c0.4,0,0.7,0.3,0.7,0.7c0,0.4-0.3,0.7-0.7,0.7
			c-0.4,0-0.7-0.3-0.7-0.7C154.5,49.4,154.8,49.1,155.2,49.1z"/>
		<path d="M161.8,52.1c0.5,0.5,0.7,1,0.7,1.6c0,1.3-0.9,2.1-2.4,2.1c-0.4,0-0.6,0-1.1-0.1c-0.4,0.2-0.6,0.4-0.6,0.7
			c0,0.5,0.3,0.6,1.3,0.6c0.2,0,0.3,0,0.6,0c0.1,0,0.2,0,0.3,0c0.8,0,1.2,0,1.5,0.1c0.7,0.2,1,0.6,1,1.3c0,0.6-0.4,1.2-0.9,1.5
			c-0.5,0.3-1.2,0.5-2.1,0.5c-0.8,0-1.4-0.1-1.9-0.4c-0.4-0.2-0.6-0.6-0.6-1.2c0-0.5,0.1-0.6,0.8-1.1c-0.5-0.2-0.8-0.6-0.8-1.1
			c0-0.3,0.1-0.5,0.6-0.8l0.5-0.3c-0.3-0.2-0.5-0.3-0.6-0.5c-0.3-0.3-0.4-0.8-0.4-1.2c0-0.8,0.3-1.5,0.9-1.9
			c0.4-0.2,0.9-0.4,1.5-0.4c0.3,0,0.5,0,0.8,0.1c0.4,0.1,0.5,0.1,0.8,0.1c0.3,0,0.7,0,1.3,0v0.5H161.8z M158.4,58.7
			c0,0.9,0.6,1.4,1.9,1.4c1.3,0,2.1-0.5,2.1-1.4c0-0.5-0.3-0.8-0.9-0.9c-0.3,0-0.6,0-1.4,0c-0.4,0-1.1,0-1.2,0
			C158.5,57.9,158.4,58.2,158.4,58.7z M159,55c0.2,0.4,0.6,0.6,1.1,0.6c0.9,0,1.3-0.6,1.3-1.8c0-1.3-0.5-1.9-1.3-1.9
			c-0.9,0-1.4,0.6-1.4,1.8C158.7,54.2,158.8,54.7,159,55z"/>
		<path d="M165.5,52.9c0.6-0.9,1.2-1.3,2.1-1.3c0.9,0,1.5,0.3,1.8,0.9c0.1,0.3,0.2,0.8,0.2,1.5v2.4c0,1.1,0.1,1.2,0.9,1.2v0.3h-2.7
			v-0.3c0.8,0,0.9-0.1,0.9-1.2v-2.4c0-0.6-0.1-1.1-0.2-1.3c-0.2-0.4-0.5-0.6-1.1-0.6c-0.5,0-0.9,0.2-1.2,0.5c-0.2,0.3-0.4,0.6-0.6,1
			c-0.1,0.3-0.1,0.5-0.1,0.9v1.9c0,1.1,0.1,1.2,0.9,1.2v0.3h-2.7v-0.3c0.8,0,0.9-0.1,0.9-1.2v-5.8c0-1,0-1.1-0.9-1.1v-0.3l1.9-0.1
			c0,0.9-0.1,1.4-0.1,2.4V52.9z"/>
		<path d="M173,56.1c0,0.7,0,1,0.2,1.2s0.3,0.3,0.6,0.3c0.3,0,0.5-0.1,0.8-0.2l0.1,0.3c-0.4,0.2-0.8,0.3-1.2,0.3
			c-0.6,0-1-0.2-1.2-0.6c-0.1-0.2-0.2-0.5-0.2-1.4v-3.9h-0.8v-0.3c0.7-0.1,1.1-0.5,1.2-1.7L173,50c0,0.5,0,1,0,1.8h1.4v0.3H173V56.1
			z"/>
	</g>
</g>
<g id="Strongtone">
	<g id="Strong3">
		<circle class="st0" cx="152.8" cy="98.2" r="20.5"/>
	</g>
	<g class="st1">
		<path d="M135.7,99.6h0.4c0,0.6,0.1,0.9,0.3,1.1c0.3,0.4,0.8,0.6,1.3,0.6c0.8,0,1.3-0.4,1.3-1.1c0-0.3-0.1-0.5-0.3-0.7
			c-0.2-0.2-0.3-0.2-1.3-0.7c-1.3-0.6-1.7-1-1.7-1.8c0-0.4,0.1-0.8,0.3-1.1c0.3-0.4,0.9-0.7,1.5-0.7c0.3,0,0.5,0,1.1,0.1
			c0.1,0,0.2,0,0.3,0c0.1,0,0.3,0,0.6-0.1l-0.1,1.9H139c0-1.1-0.6-1.7-1.4-1.7c-0.7,0-1.2,0.4-1.2,1.1c0,0.3,0.1,0.5,0.3,0.6
			c0.2,0.2,0.5,0.3,1.2,0.6c0.8,0.3,1.1,0.5,1.4,0.8c0.3,0.3,0.4,0.7,0.4,1.1c0,1.1-0.7,1.8-1.9,1.8c-0.3,0-0.5,0-1.2-0.1
			c-0.2,0-0.3,0-0.4,0s-0.3,0-0.5,0L135.7,99.6z"/>
		<path d="M142.6,99.8c0,0.7,0,1,0.2,1.2s0.3,0.3,0.6,0.3c0.3,0,0.5-0.1,0.8-0.2l0.1,0.3c-0.4,0.2-0.8,0.3-1.2,0.3
			c-0.6,0-1-0.2-1.2-0.6c-0.1-0.2-0.2-0.5-0.2-1.4v-3.9h-0.8v-0.3c0.7-0.1,1.1-0.5,1.2-1.7l0.6-0.2c0,0.5,0,1,0,1.8h1.4v0.3h-1.4
			V99.8z"/>
		<path d="M146.6,95.3c0,0.6,0,0.8,0,1c0,0.1,0,0.2,0,0.4c0.4-0.9,1-1.4,1.8-1.4c0.5,0,0.9,0.3,0.9,0.7c0,0.3-0.3,0.5-0.6,0.5
			c-0.3,0-0.4-0.1-0.4-0.3c-0.1-0.3-0.1-0.3-0.3-0.3c-0.3,0-0.6,0.3-0.9,0.7c-0.2,0.4-0.3,0.9-0.3,1.5v1.9c0,1.1,0.1,1.2,0.9,1.2
			v0.3h-2.7v-0.3c0.8,0,0.9-0.1,0.9-1.2v-3.2c0-0.9-0.1-1.1-0.8-1.1v-0.3L146.6,95.3z"/>
		<path d="M150.7,96c0.5-0.5,1.3-0.8,2.1-0.8c1.8,0,2.9,1.2,2.9,3.1c0,2-1.2,3.3-3,3.3c-1.7,0-2.9-1.2-2.9-3.1
			C149.9,97.5,150.2,96.6,150.7,96z M152.8,101.3c1.2,0,1.8-1,1.8-2.9c0-1.9-0.7-2.9-1.8-2.9c-1.2,0-1.8,1-1.8,2.9
			C151,100.2,151.6,101.3,152.8,101.3z"/>
		<path d="M158.5,96.5c0.5-0.9,1.1-1.3,2.1-1.3c0.8,0,1.2,0.2,1.6,0.7c0.2,0.3,0.3,0.8,0.3,1.5v2.5c0,1.1,0.1,1.2,0.9,1.2v0.3h-2.7
			v-0.3c0.4,0,0.6-0.1,0.7-0.2c0.1-0.1,0.1-0.2,0.1-0.4c0-0.1,0-0.6,0-0.7v-2.4c0-0.6-0.1-1-0.2-1.3c-0.2-0.4-0.6-0.6-1.1-0.6
			c-0.6,0-1,0.3-1.4,0.8c-0.3,0.4-0.4,1-0.4,1.5v2.1c0,1.1,0.1,1.2,0.9,1.2v0.3h-2.7v-0.3c0.8,0,0.9-0.1,0.9-1.2v-3.2
			c0-0.9-0.1-1.1-0.8-1.1v-0.3l1.8-0.1V96.5z"/>
		<path d="M168.5,95.8c0.5,0.5,0.7,1,0.7,1.6c0,1.3-0.9,2.1-2.4,2.1c-0.4,0-0.6,0-1.1-0.1c-0.4,0.2-0.6,0.4-0.6,0.7
			c0,0.5,0.3,0.6,1.3,0.6c0.2,0,0.3,0,0.6,0c0.1,0,0.2,0,0.3,0c0.8,0,1.2,0,1.5,0.1c0.7,0.2,1,0.6,1,1.3c0,0.6-0.4,1.2-0.9,1.5
			c-0.5,0.3-1.2,0.5-2.1,0.5c-0.8,0-1.4-0.1-1.9-0.4c-0.4-0.2-0.6-0.6-0.6-1.2c0-0.5,0.1-0.6,0.8-1.1c-0.5-0.2-0.8-0.6-0.8-1.1
			c0-0.3,0.1-0.5,0.6-0.8l0.5-0.3c-0.3-0.2-0.5-0.3-0.6-0.5c-0.3-0.3-0.4-0.8-0.4-1.2c0-0.8,0.3-1.5,0.9-1.9
			c0.4-0.2,0.9-0.4,1.5-0.4c0.3,0,0.5,0,0.8,0.1c0.4,0.1,0.5,0.1,0.8,0.1c0.3,0,0.7,0,1.3,0v0.5H168.5z M165.1,102.4
			c0,0.9,0.6,1.4,1.9,1.4c1.3,0,2.1-0.5,2.1-1.4c0-0.5-0.3-0.8-0.9-0.9c-0.3,0-0.6,0-1.4,0c-0.4,0-1.1,0-1.2,0
			C165.3,101.6,165.1,101.9,165.1,102.4z M165.8,98.7c0.2,0.4,0.6,0.6,1.1,0.6c0.9,0,1.3-0.6,1.3-1.8c0-1.3-0.5-1.9-1.3-1.9
			c-0.9,0-1.4,0.6-1.4,1.8C165.5,97.9,165.6,98.3,165.8,98.7z"/>
	</g>
</g>
<g id="Deeptone">
	<g id="Deep3">
		<circle class="st0" cx="158.2" cy="142.5" r="20.5"/>
	</g>
	<g class="st1">
		<path d="M150.6,137.7c0,0.8-0.1,1.5-0.1,2.4v4.6c0,1.1,0,1.1,0.1,1.3c0.1,0.2,0.2,0.2,0.6,0.2h0.1v0.3l-1.7,0.1l0-1
			c-0.5,0.8-1.2,1.1-2,1.1c-0.7,0-1.3-0.3-1.8-0.8c-0.4-0.6-0.7-1.3-0.7-2.2c0-2,1.1-3.3,2.7-3.3c0.7,0,1.2,0.2,1.7,0.8v-1.8
			c0-1.2,0-1.2-0.9-1.2v-0.3L150.6,137.7z M147.9,140.6c-1.1,0-1.7,1-1.7,2.9c0,1.9,0.5,2.8,1.6,2.8c1.1,0,1.8-1.1,1.8-2.9
			C149.6,141.6,149,140.6,147.9,140.6z"/>
		<path d="M153.4,143.2c0,0.8,0.1,1.3,0.3,1.8c0.3,0.9,0.9,1.3,1.8,1.3c0.9,0,1.5-0.4,2-1.4l0.3,0.2c-0.5,1.1-1.4,1.6-2.5,1.6
			c-1.7,0-2.9-1.3-2.9-3.1c0-1.9,1.2-3.3,2.8-3.3c1.1,0,1.9,0.6,2.3,1.5c0.1,0.3,0.2,0.6,0.2,1.3H153.4z M156.6,142.8
			c0-0.6-0.1-1-0.2-1.3c-0.3-0.6-0.7-0.9-1.2-0.9c-0.6,0-1.1,0.3-1.4,0.9c-0.2,0.3-0.3,0.7-0.3,1.3H156.6z"/>
		<path d="M159.9,143.2c0,0.8,0.1,1.3,0.3,1.8c0.3,0.9,0.9,1.3,1.8,1.3c0.9,0,1.5-0.4,2-1.4l0.3,0.2c-0.5,1.1-1.4,1.6-2.5,1.6
			c-1.7,0-2.9-1.3-2.9-3.1c0-1.9,1.2-3.3,2.8-3.3c1.1,0,1.9,0.6,2.3,1.5c0.1,0.3,0.2,0.6,0.2,1.3H159.9z M163.1,142.8
			c0-0.6-0.1-1-0.2-1.3c-0.3-0.6-0.7-0.9-1.2-0.9c-0.6,0-1.1,0.3-1.4,0.9c-0.2,0.3-0.3,0.7-0.3,1.3H163.1z"/>
		<path d="M166.7,141.4c0.5-0.7,1.1-1.1,2-1.1c1.5,0,2.5,1.1,2.5,3c0,0.9-0.2,1.8-0.7,2.4c-0.4,0.6-1.2,0.9-2,0.9
			c-0.7,0-1.1-0.2-1.8-0.8v1.8c0,1.1,0.1,1.2,0.9,1.2v0.3h-2.8v-0.3c0.8,0,0.9-0.1,0.9-1.2v-5.8c0-0.9-0.1-1.1-0.8-1.1v-0.3l1.8-0.1
			V141.4z M168.4,146.3c1.1,0,1.6-1,1.6-2.9c0-1.9-0.5-2.8-1.5-2.8c-0.6,0-1.1,0.3-1.4,0.8c-0.3,0.5-0.5,1.2-0.5,2.1
			C166.6,145.4,167.2,146.3,168.4,146.3z"/>
	</g>
</g>
<g id="Lighttone">
	<g id="Light3">
		<circle class="st0" cx="117.3" cy="30.6" r="20.5"/>
	</g>
	<g class="st1">
		<path d="M104.8,34.2c0.8,0,0.9-0.1,0.9-1.2v-5.8c0-0.6,0-0.9-0.2-1c-0.1-0.1-0.3-0.1-0.7-0.1v-0.3l1.9-0.1c0,0.8-0.1,1.8-0.1,2.4
			V33c0,1.1,0.1,1.2,0.9,1.2v0.3h-2.7V34.2z"/>
		<path d="M110.3,28.3c0,0.7-0.1,1.7-0.1,2.2V33c0,1.1,0.1,1.2,0.9,1.2v0.3h-2.7v-0.3c0.8,0,0.9-0.1,0.9-1.2v-3.2c0-0.6,0-0.9-0.2-1
			c-0.1-0.1-0.3-0.1-0.7-0.1v-0.3L110.3,28.3z M109.7,25.7c0.4,0,0.7,0.3,0.7,0.7c0,0.4-0.3,0.7-0.7,0.7c-0.4,0-0.7-0.3-0.7-0.7
			C109,26,109.3,25.7,109.7,25.7z"/>
		<path d="M116.3,28.8c0.5,0.5,0.7,1,0.7,1.6c0,1.3-0.9,2.1-2.4,2.1c-0.4,0-0.6,0-1.1-0.1c-0.4,0.2-0.6,0.4-0.6,0.7
			c0,0.5,0.3,0.6,1.3,0.6c0.2,0,0.3,0,0.6,0c0.1,0,0.2,0,0.3,0c0.8,0,1.2,0,1.5,0.1c0.7,0.2,1,0.6,1,1.3c0,0.6-0.4,1.2-0.9,1.5
			c-0.5,0.3-1.2,0.5-2.1,0.5c-0.8,0-1.4-0.1-1.9-0.4c-0.4-0.2-0.6-0.6-0.6-1.2c0-0.5,0.1-0.6,0.8-1.1c-0.5-0.2-0.8-0.6-0.8-1.1
			c0-0.3,0.1-0.5,0.6-0.8l0.5-0.3c-0.3-0.2-0.5-0.3-0.6-0.5c-0.3-0.3-0.4-0.8-0.4-1.2c0-0.8,0.3-1.5,0.9-1.9
			c0.4-0.2,0.9-0.4,1.5-0.4c0.3,0,0.5,0,0.8,0.1c0.4,0.1,0.5,0.1,0.8,0.1c0.3,0,0.7,0,1.3,0v0.5H116.3z M112.9,35.4
			c0,0.9,0.6,1.4,1.9,1.4c1.3,0,2.1-0.5,2.1-1.4c0-0.5-0.3-0.8-0.9-0.9c-0.3,0-0.6,0-1.4,0c-0.4,0-1.1,0-1.2,0
			C113.1,34.6,112.9,34.9,112.9,35.4z M113.6,31.7c0.2,0.4,0.6,0.6,1.1,0.6c0.9,0,1.3-0.6,1.3-1.8c0-1.3-0.5-1.9-1.3-1.9
			c-0.9,0-1.4,0.6-1.4,1.8C113.3,30.9,113.4,31.3,113.6,31.7z"/>
		<path d="M120,29.5c0.6-0.9,1.2-1.3,2.1-1.3c0.9,0,1.5,0.3,1.8,0.9c0.1,0.3,0.2,0.8,0.2,1.5V33c0,1.1,0.1,1.2,0.9,1.2v0.3h-2.7
			v-0.3c0.8,0,0.9-0.1,0.9-1.2v-2.4c0-0.6-0.1-1.1-0.2-1.3c-0.2-0.4-0.5-0.6-1.1-0.6c-0.5,0-0.9,0.2-1.2,0.5c-0.2,0.3-0.4,0.6-0.6,1
			c-0.1,0.3-0.1,0.5-0.1,0.9V33c0,1.1,0.1,1.2,0.9,1.2v0.3h-2.7v-0.3c0.8,0,0.9-0.1,0.9-1.2v-5.8c0-1,0-1.1-0.9-1.1v-0.3l1.9-0.1
			c0,0.9-0.1,1.4-0.1,2.4V29.5z"/>
		<path d="M127.5,32.8c0,0.7,0,1,0.2,1.2s0.3,0.3,0.6,0.3c0.3,0,0.5-0.1,0.8-0.2l0.1,0.3c-0.4,0.2-0.8,0.3-1.2,0.3
			c-0.6,0-1-0.2-1.2-0.6c-0.1-0.2-0.2-0.5-0.2-1.4v-3.9h-0.8v-0.3c0.7-0.1,1.1-0.5,1.2-1.7l0.6-0.2c0,0.5,0,1,0,1.8h1.4v0.3h-1.4
			V32.8z"/>
	</g>
</g>
<g id="Softtone">
	<g id="Soft3">
		<circle class="st0" cx="112.5" cy="74.4" r="20.5"/>
	</g>
	<g class="st1">
		<path d="M102.4,75.4h0.4c0,0.6,0.1,0.9,0.3,1.1c0.3,0.4,0.8,0.6,1.3,0.6c0.8,0,1.3-0.4,1.3-1.1c0-0.3-0.1-0.5-0.3-0.7
			c-0.2-0.2-0.3-0.2-1.3-0.7c-1.3-0.6-1.7-1-1.7-1.8c0-0.4,0.1-0.8,0.3-1.1c0.3-0.4,0.9-0.7,1.5-0.7c0.3,0,0.5,0,1.1,0.1
			c0.1,0,0.2,0,0.3,0c0.1,0,0.3,0,0.6-0.1l-0.1,1.9h-0.4c0-1.1-0.6-1.7-1.4-1.7c-0.7,0-1.2,0.4-1.2,1.1c0,0.3,0.1,0.5,0.3,0.6
			c0.2,0.2,0.5,0.3,1.2,0.6c0.8,0.3,1.1,0.5,1.4,0.8c0.3,0.3,0.4,0.7,0.4,1.1c0,1.1-0.7,1.8-1.9,1.8c-0.3,0-0.5,0-1.2-0.1
			c-0.2,0-0.3,0-0.4,0s-0.3,0-0.5,0L102.4,75.4z"/>
		<path d="M108.5,71.9c0.5-0.5,1.3-0.8,2.1-0.8c1.8,0,2.9,1.2,2.9,3.1c0,2-1.2,3.3-3,3.3c-1.7,0-2.9-1.2-2.9-3.1
			C107.6,73.4,107.9,72.4,108.5,71.9z M110.5,77.2c1.2,0,1.8-1,1.8-2.9c0-1.9-0.7-3-1.8-3c-1.2,0-1.8,1-1.8,2.9
			C108.7,76.1,109.4,77.2,110.5,77.2z"/>
		<path d="M116.3,75.8c0,1.1,0.1,1.2,0.9,1.2v0.3h-2.8V77c0.8,0,0.9-0.1,0.9-1.2v-4.2h-0.9v-0.3h0.9c0-0.5,0-0.9,0-1.1
			c0-0.5,0.1-0.9,0.4-1.2c0.3-0.3,0.9-0.5,1.4-0.5c0.9,0,1.5,0.4,1.5,0.9c0,0.2-0.2,0.4-0.6,0.4c-0.2,0-0.3,0-0.4-0.1
			c-0.1-0.1-0.1-0.1-0.1-0.4c-0.1-0.4-0.2-0.5-0.6-0.5c-0.5,0-0.7,0.4-0.7,1.2c0,0.2,0,0.3,0,0.9c0,0.1,0,0.3,0,0.5h1.6v0.3h-1.6
			V75.8z"/>
		<path d="M120.2,75.6c0,0.7,0,1,0.2,1.2s0.3,0.3,0.6,0.3c0.3,0,0.5-0.1,0.8-0.2l0.1,0.3c-0.4,0.2-0.8,0.3-1.2,0.3
			c-0.6,0-1-0.2-1.2-0.6c-0.1-0.2-0.2-0.5-0.2-1.4v-3.9h-0.8v-0.3c0.7-0.1,1.1-0.5,1.2-1.7l0.6-0.2c0,0.5,0,1,0,1.8h1.4v0.3h-1.4
			V75.6z"/>
	</g>
</g>
<g id="Dulltone">
	<g id="Dull3">
		<circle class="st0" cx="112.5" cy="120.1" r="19.8"/>
	</g>
	<g class="st1">
		<path d="M107.5,114.7c0,0.8-0.1,1.5-0.1,2.4v4.6c0,1.1,0,1.1,0.1,1.3c0.1,0.2,0.2,0.2,0.6,0.2h0.1v0.3l-1.7,0.1l0-1
			c-0.5,0.8-1.2,1.1-2,1.1c-0.7,0-1.3-0.3-1.8-0.8c-0.4-0.6-0.7-1.3-0.7-2.2c0-2,1.1-3.3,2.7-3.3c0.7,0,1.2,0.2,1.7,0.8v-1.8
			c0-1.2,0-1.2-0.9-1.2v-0.3L107.5,114.7z M104.8,117.5c-1.1,0-1.7,1-1.7,2.9c0,1.9,0.5,2.8,1.6,2.8c1.1,0,1.8-1.1,1.8-2.9
			C106.5,118.6,105.9,117.5,104.8,117.5z"/>
		<path d="M113.7,123.6c0-0.3-0.1-0.6-0.1-1.2c-0.5,0.8-1.2,1.3-2.1,1.3c-0.8,0-1.4-0.4-1.6-1c-0.1-0.3-0.2-0.8-0.2-1.9v-2
			c0-0.6,0-0.9-0.2-1c-0.1-0.1-0.2-0.1-0.4-0.1c-0.2,0-0.2,0-0.2,0v-0.3l1.9-0.1c-0.1,1.1-0.1,1.4-0.1,2.2v1c0,1.2,0,1.5,0.2,2
			c0.1,0.4,0.5,0.7,1,0.7c0.7,0,1.2-0.4,1.6-1.2c0.2-0.4,0.2-0.7,0.2-1.4v-1.8c0-0.6,0-0.9-0.2-1c-0.1-0.1-0.2-0.1-0.4-0.1h-0.2
			v-0.3l1.9-0.1c0,0.9-0.1,1.7-0.1,2.2v2.3c0,1.2,0.1,1.4,0.7,1.4h0.1v0.3L113.7,123.6z"/>
		<path d="M116.2,123.2c0.8,0,0.9-0.1,0.9-1.2v-5.8c0-0.6,0-0.9-0.2-1c-0.1-0.1-0.3-0.1-0.7-0.1v-0.3l1.9-0.1c0,0.8-0.1,1.8-0.1,2.4
			v4.9c0,1.1,0.1,1.2,0.9,1.2v0.3h-2.7V123.2z"/>
		<path d="M119.8,123.2c0.8,0,0.9-0.1,0.9-1.2v-5.8c0-0.6,0-0.9-0.2-1c-0.1-0.1-0.3-0.1-0.7-0.1v-0.3l1.9-0.1c0,0.8-0.1,1.8-0.1,2.4
			v4.9c0,1.1,0.1,1.2,0.9,1.2v0.3h-2.7V123.2z"/>
	</g>
</g>
<g id="Darktone">
	<g id="Dark3">
		<circle class="st0" cx="117.3" cy="163.4" r="20.5"/>
	</g>
	<g class="st1">
		<path d="M110.6,158.3c0,0.8-0.1,1.5-0.1,2.4v4.6c0,1.1,0,1.1,0.1,1.3c0.1,0.2,0.2,0.2,0.6,0.2h0.1v0.3l-1.7,0.1l0-1
			c-0.5,0.8-1.2,1.1-2,1.1c-0.7,0-1.3-0.3-1.8-0.8c-0.4-0.6-0.7-1.3-0.7-2.2c0-2,1.1-3.3,2.7-3.3c0.7,0,1.2,0.2,1.7,0.8v-1.8
			c0-1.2,0-1.2-0.9-1.2v-0.3L110.6,158.3z M107.8,161.1c-1.1,0-1.7,1-1.7,2.9c0,1.9,0.5,2.8,1.6,2.8c1.1,0,1.8-1.1,1.8-2.9
			C109.5,162.2,108.9,161.1,107.8,161.1z"/>
		<path d="M117.8,167c-0.5,0.1-1,0.1-1.2,0.1c-0.4,0-0.5-0.2-0.5-1c-0.2,0.2-0.3,0.3-0.6,0.5c-0.5,0.4-0.9,0.5-1.6,0.5
			c-0.5,0-0.9-0.1-1.2-0.4c-0.3-0.3-0.5-0.8-0.5-1.3c0-0.9,0.6-1.6,1.8-1.8c0.6-0.1,1.3-0.2,2.1-0.3v-0.8c0-0.6,0-0.8-0.2-1.1
			c-0.2-0.3-0.5-0.5-1-0.5c-0.8,0-1.2,0.4-1.2,1.1c0,0.3,0,0.3-0.1,0.4c-0.1,0.1-0.2,0.1-0.4,0.1c-0.4,0-0.6-0.1-0.6-0.4
			c0-0.4,0.3-0.9,0.8-1.2c0.5-0.3,1-0.4,1.8-0.4c0.8,0,1.3,0.2,1.6,0.5c0.2,0.3,0.3,0.7,0.3,1.4c0,0,0,0,0,1.2l0,1.1l0,0.6
			c0,0.5,0.1,0.9,0.1,1c0.1,0.1,0.2,0.1,0.7,0.1V167z M116.1,163.7c-1.1,0.1-1.5,0.2-2,0.4c-0.5,0.3-0.8,0.7-0.8,1.4
			c0,0.8,0.4,1.3,1,1.3c0.6,0,1.2-0.4,1.5-0.9c0.2-0.3,0.3-0.8,0.3-1.6V163.7z"/>
		<path d="M120.4,160.9c0,0.6,0,0.8,0,1c0,0.1,0,0.2,0,0.4c0.4-0.9,1-1.4,1.8-1.4c0.5,0,0.9,0.3,0.9,0.7c0,0.3-0.3,0.5-0.6,0.5
			c-0.3,0-0.4-0.1-0.4-0.3c-0.1-0.3-0.1-0.3-0.3-0.3c-0.3,0-0.6,0.3-0.9,0.7c-0.2,0.4-0.3,0.9-0.3,1.5v1.9c0,1.1,0.1,1.2,0.9,1.2
			v0.3h-2.7v-0.3c0.8,0,0.9-0.1,0.9-1.2v-3.2c0-0.9-0.1-1.1-0.8-1.1V161L120.4,160.9z"/>
		<path d="M125.3,165.6c0,1.1,0.1,1.2,0.9,1.2v0.3h-2.7v-0.3c0.8,0,0.9-0.1,0.9-1.2v-5.8c0-1,0-1.1-0.9-1.1v-0.3l1.9-0.1
			c0,0.8-0.1,1.8-0.1,2.4v3.8l1.9-2.1c0.3-0.3,0.4-0.6,0.4-0.7c0-0.3-0.2-0.4-0.8-0.4V161h2.7v0.3c-0.3,0-0.5,0.1-0.8,0.3
			c-0.4,0.3-0.5,0.3-1.2,1.1l-0.6,0.7l1.7,2.6c0.4,0.6,0.6,0.8,1.1,0.9v0.3h-1.6c-0.1-0.3-0.5-0.9-0.6-1.2l-1.2-2l-0.9,1V165.6z"/>
	</g>
</g>
<g id="Paletone">
	<g id="Pale3">
		<circle class="st0" cx="69.6" cy="28.4" r="19.8"/>
	</g>
	<g class="st1">
		<path d="M60.3,25.8c0.5-0.7,1.1-1.1,2-1.1c1.5,0,2.5,1.1,2.5,3c0,0.9-0.2,1.8-0.7,2.4c-0.4,0.6-1.2,0.9-2,0.9
			c-0.7,0-1.1-0.2-1.8-0.8V32c0,1.1,0.1,1.2,0.9,1.2v0.3h-2.8v-0.3c0.8,0,0.9-0.1,0.9-1.2v-5.8c0-0.9-0.1-1.1-0.8-1.1v-0.3l1.8-0.1
			V25.8z M62,30.7c1.1,0,1.6-1,1.6-2.9c0-1.9-0.5-2.8-1.5-2.8c-0.6,0-1.1,0.3-1.4,0.8c-0.3,0.5-0.5,1.2-0.5,2.1
			C60.2,29.8,60.8,30.7,62,30.7z"/>
		<path d="M71.5,30.9c-0.5,0.1-1,0.1-1.2,0.1c-0.4,0-0.5-0.2-0.5-1c-0.2,0.2-0.3,0.3-0.6,0.5c-0.5,0.4-0.9,0.5-1.6,0.5
			c-0.5,0-0.9-0.1-1.2-0.4c-0.3-0.3-0.5-0.8-0.5-1.3c0-0.9,0.6-1.6,1.8-1.8c0.6-0.1,1.3-0.2,2.1-0.3v-0.8c0-0.6,0-0.8-0.2-1.1
			c-0.2-0.3-0.5-0.5-1-0.5c-0.8,0-1.2,0.4-1.2,1.1c0,0.3,0,0.3-0.1,0.4c-0.1,0.1-0.2,0.1-0.4,0.1c-0.4,0-0.6-0.1-0.6-0.4
			c0-0.4,0.3-0.9,0.8-1.2c0.5-0.3,1-0.4,1.8-0.4c0.8,0,1.3,0.2,1.6,0.5c0.2,0.3,0.3,0.7,0.3,1.4c0,0,0,0,0,1.2l0,1.1l0,0.6
			c0,0.5,0.1,0.9,0.1,1c0.1,0.1,0.2,0.1,0.7,0.1V30.9z M69.8,27.6c-1.1,0.1-1.5,0.2-2,0.4c-0.5,0.3-0.8,0.7-0.8,1.4
			c0,0.8,0.4,1.3,1,1.3c0.6,0,1.2-0.4,1.5-0.9c0.2-0.3,0.3-0.8,0.3-1.6V27.6z"/>
		<path d="M72.3,30.7c0.8,0,0.9-0.1,0.9-1.2v-5.8c0-0.6,0-0.9-0.2-1c-0.1-0.1-0.3-0.1-0.7-0.1v-0.3l1.9-0.1c0,0.8-0.1,1.8-0.1,2.4
			v4.9c0,1.1,0.1,1.2,0.9,1.2V31h-2.7V30.7z"/>
		<path d="M77.1,27.6c0,0.8,0.1,1.3,0.3,1.8c0.3,0.9,0.9,1.3,1.8,1.3c0.9,0,1.5-0.4,2-1.4l0.3,0.2c-0.5,1.1-1.4,1.6-2.5,1.6
			c-1.7,0-2.9-1.3-2.9-3.1c0-1.9,1.2-3.3,2.8-3.3c1.1,0,1.9,0.6,2.3,1.5c0.1,0.3,0.2,0.6,0.2,1.3H77.1z M80.3,27.3
			c0-0.6-0.1-1-0.2-1.3c-0.3-0.6-0.7-0.9-1.2-0.9c-0.6,0-1.1,0.3-1.4,0.9c-0.2,0.3-0.3,0.7-0.3,1.3H80.3z"/>
	</g>
</g>
<g id="LightGrayishtone">
	<g id="Ltg3">
		<circle class="st0" cx="69.6" cy="74.4" r="20.5"/>
	</g>
	<g class="st1">
		<path d="M53.5,72.2c0.7,0,0.7-0.1,0.7-1v-4.9c0-0.5,0-0.7-0.1-0.8c-0.1-0.1-0.2-0.1-0.6-0.1v-0.2l1.6-0.1c0,0.7-0.1,1.5-0.1,2v4.1
			c0,0.9,0,1,0.7,1v0.2h-2.3V72.2z"/>
		<path d="M58.1,67.3c0,0.6-0.1,1.4-0.1,1.9v2c0,0.9,0,1,0.7,1v0.2h-2.3v-0.2c0.7,0,0.7-0.1,0.7-1v-2.7c0-0.5,0-0.7-0.1-0.8
			c-0.1-0.1-0.2-0.1-0.6-0.1v-0.2L58.1,67.3z M57.6,65.2c0.3,0,0.6,0.2,0.6,0.6c0,0.3-0.2,0.6-0.6,0.6c-0.3,0-0.6-0.2-0.6-0.6
			C57,65.4,57.2,65.2,57.6,65.2z"/>
		<path d="M63.1,67.7c0.4,0.4,0.6,0.8,0.6,1.3c0,1.1-0.8,1.7-2,1.7c-0.3,0-0.5,0-0.9-0.1c-0.4,0.2-0.5,0.4-0.5,0.6
			c0,0.4,0.3,0.5,1.1,0.5c0.1,0,0.2,0,0.5,0c0.1,0,0.2,0,0.2,0c0.7,0,1,0,1.3,0.1c0.5,0.2,0.8,0.5,0.8,1.1c0,0.5-0.3,1-0.7,1.2
			c-0.4,0.3-1,0.4-1.8,0.4c-0.7,0-1.2-0.1-1.5-0.3c-0.4-0.2-0.5-0.5-0.5-1c0-0.4,0.1-0.5,0.7-0.9c-0.4-0.2-0.6-0.5-0.6-0.9
			c0-0.3,0.1-0.4,0.5-0.7l0.4-0.3c-0.3-0.2-0.4-0.3-0.5-0.4c-0.2-0.3-0.3-0.6-0.3-1c0-0.7,0.3-1.3,0.8-1.6c0.3-0.2,0.8-0.3,1.2-0.3
			c0.2,0,0.4,0,0.7,0.1c0.3,0,0.4,0.1,0.6,0.1c0.2,0,0.5,0,1.1,0v0.4H63.1z M60.2,73.2c0,0.7,0.5,1.1,1.5,1.1c1.1,0,1.7-0.4,1.7-1.1
			c0-0.4-0.2-0.6-0.8-0.7c-0.2,0-0.5,0-1.1,0c-0.3,0-0.9,0-1,0C60.4,72.6,60.2,72.8,60.2,73.2z M60.8,70.1c0.2,0.3,0.5,0.5,0.9,0.5
			c0.7,0,1.1-0.5,1.1-1.5c0-1-0.4-1.6-1.1-1.6c-0.7,0-1.1,0.5-1.1,1.5C60.5,69.4,60.6,69.8,60.8,70.1z"/>
		<path d="M66.2,68.3c0.5-0.8,1-1.1,1.8-1.1c0.7,0,1.2,0.2,1.5,0.7c0.1,0.2,0.2,0.7,0.2,1.2v2c0,0.9,0,1,0.7,1v0.2H68v-0.2
			c0.7,0,0.7-0.1,0.7-1v-2c0-0.5,0-0.9-0.2-1.1c-0.2-0.3-0.4-0.5-0.9-0.5c-0.4,0-0.7,0.1-1,0.4c-0.2,0.2-0.4,0.5-0.5,0.8
			c-0.1,0.2-0.1,0.4-0.1,0.7v1.6c0,0.9,0.1,1,0.7,1v0.2h-2.3v-0.2c0.7,0,0.7-0.1,0.7-1v-4.9c0-0.8,0-0.9-0.7-0.9v-0.2l1.6-0.1
			c0,0.8-0.1,1.1-0.1,2V68.3z"/>
		<path d="M72.4,71c0,0.6,0,0.8,0.1,1c0.1,0.1,0.3,0.2,0.5,0.2c0.2,0,0.4,0,0.6-0.2l0.1,0.3c-0.3,0.2-0.6,0.2-1,0.2
			c-0.5,0-0.9-0.2-1-0.5c-0.1-0.2-0.1-0.4-0.1-1.2v-3.2H71v-0.2c0.6,0,0.9-0.4,1-1.4l0.5-0.1c0,0.4,0,0.8,0,1.5h1.2v0.3h-1.2V71z"/>
	</g>
	<g class="st1">
		<path d="M57.2,76.7c0.4,0.4,0.6,0.8,0.6,1.3c0,1.1-0.8,1.7-2,1.7c-0.3,0-0.5,0-0.9-0.1c-0.4,0.2-0.5,0.4-0.5,0.6
			c0,0.4,0.3,0.5,1.1,0.5c0.1,0,0.2,0,0.5,0c0.1,0,0.2,0,0.2,0c0.7,0,1,0,1.3,0.1c0.5,0.2,0.8,0.5,0.8,1.1c0,0.5-0.3,1-0.7,1.2
			c-0.4,0.3-1,0.4-1.8,0.4c-0.7,0-1.2-0.1-1.5-0.3c-0.4-0.2-0.5-0.5-0.5-1c0-0.4,0.1-0.5,0.7-0.9c-0.4-0.2-0.6-0.5-0.6-0.9
			c0-0.3,0.1-0.4,0.5-0.7l0.4-0.3c-0.3-0.2-0.4-0.3-0.5-0.4c-0.2-0.3-0.3-0.6-0.3-1c0-0.7,0.3-1.3,0.8-1.6c0.3-0.2,0.8-0.3,1.2-0.3
			c0.2,0,0.4,0,0.7,0.1c0.3,0,0.4,0.1,0.6,0.1c0.2,0,0.5,0,1.1,0v0.4H57.2z M54.3,82.2c0,0.7,0.5,1.1,1.5,1.1c1.1,0,1.7-0.4,1.7-1.1
			c0-0.4-0.2-0.6-0.8-0.7c-0.2,0-0.5,0-1.1,0c-0.3,0-0.9,0-1,0C54.5,81.6,54.3,81.8,54.3,82.2z M54.9,79.1c0.2,0.3,0.5,0.5,0.9,0.5
			c0.7,0,1.1-0.5,1.1-1.5c0-1-0.4-1.6-1.1-1.6c-0.7,0-1.1,0.5-1.1,1.5C54.6,78.4,54.7,78.8,54.9,79.1z"/>
		<path d="M60.3,76.3c0,0.5,0,0.6,0,0.8c0,0.1,0,0.2,0,0.3c0.3-0.8,0.9-1.2,1.5-1.2c0.4,0,0.8,0.3,0.8,0.6c0,0.2-0.2,0.4-0.5,0.4
			c-0.2,0-0.3-0.1-0.4-0.2c-0.1-0.2-0.1-0.3-0.3-0.3c-0.3,0-0.5,0.2-0.7,0.6c-0.2,0.3-0.3,0.7-0.3,1.3v1.6c0,0.9,0,1,0.7,1v0.2h-2.3
			v-0.2c0.7,0,0.7-0.1,0.7-1v-2.7c0-0.7-0.1-0.9-0.7-0.9v-0.2L60.3,76.3z"/>
		<path d="M67.7,81.4c-0.4,0.1-0.8,0.1-1,0.1c-0.3,0-0.4-0.2-0.4-0.8c-0.2,0.2-0.3,0.3-0.5,0.4c-0.4,0.3-0.8,0.4-1.3,0.4
			c-0.4,0-0.8-0.1-1-0.3C63.2,81,63,80.6,63,80.2c0-0.8,0.5-1.3,1.5-1.5c0.5-0.1,1-0.2,1.8-0.2v-0.6c0-0.5,0-0.7-0.1-0.9
			c-0.1-0.3-0.4-0.4-0.8-0.4c-0.7,0-1,0.3-1,0.9c0,0.2,0,0.3-0.1,0.3c-0.1,0-0.2,0.1-0.4,0.1c-0.3,0-0.5-0.1-0.5-0.3
			c0-0.4,0.3-0.7,0.7-1c0.4-0.2,0.9-0.3,1.5-0.3c0.6,0,1.1,0.1,1.3,0.4c0.2,0.2,0.3,0.6,0.3,1.1c0,0,0,0,0,1l0,0.9l0,0.5
			c0,0.4,0,0.8,0.1,0.9s0.2,0.1,0.6,0.1V81.4z M66.3,78.7c-0.9,0.1-1.3,0.2-1.7,0.4c-0.4,0.2-0.7,0.6-0.7,1.1c0,0.6,0.3,1.1,0.8,1.1
			c0.5,0,1-0.3,1.3-0.7c0.2-0.3,0.2-0.7,0.2-1.4V78.7z"/>
		<path d="M72.1,77.6c0.1-0.2,0.1-0.4,0.1-0.5c0-0.3-0.2-0.4-0.7-0.5v-0.2h1.9v0.2c-0.5,0-0.7,0.3-1,1.1l-1.9,4.8
			c-0.1,0.3-0.3,0.6-0.4,0.7c-0.2,0.2-0.5,0.3-0.8,0.3c-0.4,0-0.5-0.2-0.5-0.5c0-0.2,0.1-0.4,0.3-0.4c0,0,0.1,0,0.1,0
			c0.2,0,0.3,0,0.4,0c0.4,0,0.5-0.2,0.7-0.7l0.2-0.6L69,77.6c-0.3-0.8-0.4-0.9-0.9-1v-0.2h2.2v0.2c-0.4,0-0.6,0.1-0.6,0.4
			c0,0.1,0,0.2,0.1,0.6l1.1,3L72.1,77.6z"/>
		<path d="M75.5,76.3c0,0.6-0.1,1.4-0.1,1.9v2c0,0.9,0,1,0.7,1v0.2h-2.3v-0.2c0.7,0,0.7-0.1,0.7-1v-2.7c0-0.5,0-0.7-0.1-0.8
			c-0.1-0.1-0.2-0.1-0.6-0.1v-0.2L75.5,76.3z M75,74.2c0.3,0,0.6,0.2,0.6,0.6c0,0.3-0.2,0.6-0.6,0.6c-0.3,0-0.6-0.2-0.6-0.6
			C74.4,74.4,74.6,74.2,75,74.2z"/>
		<path d="M77,79.9h0.3c0,0.5,0.1,0.7,0.3,0.9c0.3,0.4,0.6,0.5,1.1,0.5c0.7,0,1.1-0.4,1.1-0.9c0-0.2-0.1-0.5-0.2-0.6
			c-0.2-0.1-0.2-0.2-1.1-0.6c-1.1-0.5-1.4-0.8-1.4-1.5c0-0.4,0.1-0.7,0.3-0.9c0.3-0.4,0.7-0.6,1.2-0.6c0.3,0,0.4,0,0.9,0.1
			c0.1,0,0.1,0,0.2,0c0.1,0,0.3,0,0.5-0.1l0,1.6h-0.3c0-0.9-0.5-1.4-1.2-1.4c-0.6,0-1,0.3-1,0.9c0,0.2,0.1,0.4,0.3,0.5
			c0.2,0.1,0.4,0.2,1,0.5c0.7,0.3,0.9,0.4,1.1,0.7c0.2,0.2,0.3,0.6,0.3,0.9c0,0.9-0.6,1.5-1.5,1.5c-0.3,0-0.4,0-1-0.1
			c-0.1,0-0.3,0-0.4,0s-0.2,0-0.4,0L77,79.9z"/>
		<path d="M82.7,77.3c0.5-0.8,1-1.1,1.8-1.1c0.7,0,1.2,0.2,1.5,0.7c0.1,0.2,0.2,0.7,0.2,1.2v2c0,0.9,0,1,0.7,1v0.2h-2.3v-0.2
			c0.7,0,0.7-0.1,0.7-1v-2c0-0.5,0-0.9-0.2-1.1c-0.2-0.3-0.4-0.5-0.9-0.5c-0.4,0-0.8,0.1-1,0.4c-0.2,0.2-0.4,0.5-0.5,0.8
			c-0.1,0.2-0.1,0.4-0.1,0.7v1.6c0,0.9,0.1,1,0.7,1v0.2h-2.3v-0.2c0.7,0,0.7-0.1,0.7-1v-4.9c0-0.8,0-0.9-0.7-0.9v-0.2l1.6-0.1
			c0,0.8-0.1,1.1-0.1,2V77.3z"/>
	</g>
</g>
<g id="Grayishtone">
	<g id="Grayish3">
		<circle class="st0" cx="69.6" cy="120.6" r="20"/>
	</g>
	<g class="st1">
		<path d="M56.8,118.7c0.4,0.4,0.6,0.8,0.6,1.3c0,1.1-0.8,1.7-2,1.7c-0.3,0-0.5,0-0.9-0.1c-0.4,0.2-0.5,0.4-0.5,0.6
			c0,0.4,0.3,0.5,1.1,0.5c0.1,0,0.2,0,0.5,0c0.1,0,0.2,0,0.2,0c0.7,0,1,0,1.3,0.1c0.5,0.2,0.8,0.5,0.8,1.1c0,0.5-0.3,1-0.7,1.2
			c-0.4,0.3-1,0.4-1.8,0.4c-0.7,0-1.2-0.1-1.5-0.3c-0.4-0.2-0.5-0.5-0.5-1c0-0.4,0.1-0.5,0.7-0.9c-0.4-0.2-0.6-0.5-0.6-0.9
			c0-0.3,0.1-0.4,0.5-0.7l0.4-0.3c-0.3-0.2-0.4-0.3-0.5-0.4c-0.2-0.3-0.3-0.6-0.3-1c0-0.7,0.3-1.3,0.8-1.6c0.3-0.2,0.8-0.3,1.2-0.3
			c0.2,0,0.4,0,0.7,0.1c0.3,0,0.4,0.1,0.6,0.1c0.2,0,0.5,0,1.1,0v0.4H56.8z M53.9,124.2c0,0.7,0.5,1.1,1.5,1.1
			c1.1,0,1.7-0.4,1.7-1.1c0-0.4-0.2-0.6-0.8-0.7c-0.2,0-0.5,0-1.1,0c-0.3,0-0.9,0-1,0C54.1,123.6,53.9,123.8,53.9,124.2z
			 M54.5,121.1c0.2,0.3,0.5,0.5,0.9,0.5c0.7,0,1.1-0.5,1.1-1.5c0-1-0.4-1.6-1.1-1.6c-0.7,0-1.1,0.5-1.1,1.5
			C54.2,120.5,54.3,120.9,54.5,121.1z"/>
		<path d="M59.9,118.3c0,0.5,0,0.6,0,0.8c0,0.1,0,0.2,0,0.3c0.3-0.8,0.9-1.2,1.5-1.2c0.4,0,0.8,0.3,0.8,0.6c0,0.2-0.2,0.4-0.5,0.4
			c-0.2,0-0.3-0.1-0.4-0.2c-0.1-0.2-0.1-0.3-0.3-0.3c-0.3,0-0.5,0.2-0.7,0.6c-0.2,0.3-0.3,0.7-0.3,1.3v1.6c0,0.9,0,1,0.7,1v0.2h-2.3
			v-0.2c0.7,0,0.7-0.1,0.7-1v-2.7c0-0.7-0.1-0.9-0.7-0.9v-0.2L59.9,118.3z"/>
		<path d="M67.3,123.4c-0.4,0.1-0.8,0.1-1,0.1c-0.3,0-0.4-0.2-0.4-0.8c-0.2,0.2-0.3,0.3-0.5,0.4c-0.4,0.3-0.8,0.4-1.3,0.4
			c-0.4,0-0.8-0.1-1-0.3c-0.3-0.2-0.4-0.6-0.4-1.1c0-0.8,0.5-1.3,1.5-1.5c0.5-0.1,1-0.2,1.8-0.2v-0.6c0-0.5,0-0.7-0.1-0.9
			c-0.1-0.3-0.4-0.4-0.8-0.4c-0.7,0-1,0.3-1,0.9c0,0.2,0,0.3-0.1,0.3c-0.1,0-0.2,0.1-0.4,0.1c-0.3,0-0.5-0.1-0.5-0.3
			c0-0.4,0.3-0.7,0.7-1c0.4-0.2,0.9-0.3,1.5-0.3c0.6,0,1.1,0.1,1.3,0.4c0.2,0.2,0.3,0.6,0.3,1.1c0,0,0,0,0,1l0,0.9l0,0.5
			c0,0.4,0,0.8,0.1,0.9s0.2,0.1,0.6,0.1V123.4z M65.9,120.7c-0.9,0.1-1.3,0.2-1.7,0.4c-0.4,0.2-0.7,0.6-0.7,1.1
			c0,0.6,0.3,1.1,0.8,1.1c0.5,0,1-0.3,1.3-0.7c0.2-0.3,0.2-0.7,0.2-1.4V120.7z"/>
		<path d="M71.7,119.6c0.1-0.2,0.1-0.4,0.1-0.5c0-0.3-0.2-0.4-0.7-0.5v-0.2H73v0.2c-0.5,0-0.7,0.3-1,1.1l-1.9,4.8
			c-0.1,0.3-0.3,0.6-0.4,0.7c-0.2,0.2-0.5,0.3-0.8,0.3c-0.4,0-0.5-0.2-0.5-0.5c0-0.2,0.1-0.4,0.3-0.4c0,0,0.1,0,0.1,0
			c0.2,0,0.3,0,0.4,0c0.4,0,0.5-0.2,0.7-0.7l0.2-0.6l-1.5-3.9c-0.3-0.8-0.4-0.9-0.9-1v-0.2h2.2v0.2c-0.4,0-0.6,0.1-0.6,0.4
			c0,0.1,0,0.2,0.1,0.6l1.1,3L71.7,119.6z"/>
		<path d="M75.1,118.3c0,0.6-0.1,1.4-0.1,1.9v2c0,0.9,0,1,0.7,1v0.2h-2.3v-0.2c0.7,0,0.7-0.1,0.7-1v-2.7c0-0.5,0-0.7-0.1-0.8
			c-0.1-0.1-0.2-0.1-0.6-0.1v-0.2L75.1,118.3z M74.6,116.2c0.3,0,0.6,0.2,0.6,0.6c0,0.3-0.2,0.6-0.6,0.6c-0.3,0-0.6-0.2-0.6-0.6
			C74,116.4,74.3,116.2,74.6,116.2z"/>
		<path d="M76.6,121.9h0.3c0,0.5,0.1,0.7,0.3,0.9c0.3,0.4,0.6,0.5,1.1,0.5c0.7,0,1.1-0.4,1.1-0.9c0-0.2-0.1-0.5-0.2-0.6
			c-0.2-0.1-0.2-0.2-1.1-0.6c-1.1-0.5-1.4-0.8-1.4-1.5c0-0.4,0.1-0.7,0.3-0.9c0.3-0.4,0.7-0.6,1.2-0.6c0.3,0,0.4,0,0.9,0.1
			c0.1,0,0.1,0,0.2,0c0.1,0,0.3,0,0.5-0.1l0,1.6h-0.3c0-0.9-0.5-1.4-1.2-1.4c-0.6,0-1,0.3-1,0.9c0,0.2,0.1,0.4,0.3,0.5
			c0.2,0.1,0.4,0.2,1,0.5c0.7,0.3,0.9,0.4,1.1,0.7c0.2,0.2,0.3,0.6,0.3,0.9c0,0.9-0.6,1.5-1.5,1.5c-0.3,0-0.4,0-1-0.1
			c-0.1,0-0.3,0-0.4,0s-0.2,0-0.4,0L76.6,121.9z"/>
		<path d="M82.3,119.3c0.5-0.8,1-1.1,1.8-1.1c0.7,0,1.2,0.2,1.5,0.7c0.1,0.2,0.2,0.7,0.2,1.2v2c0,0.9,0,1,0.7,1v0.2h-2.3v-0.2
			c0.7,0,0.7-0.1,0.7-1v-2c0-0.5,0-0.9-0.2-1.1c-0.2-0.3-0.4-0.5-0.9-0.5c-0.4,0-0.8,0.1-1,0.4c-0.2,0.2-0.4,0.5-0.5,0.8
			c-0.1,0.2-0.1,0.4-0.1,0.7v1.6c0,0.9,0.1,1,0.7,1v0.2h-2.3v-0.2c0.7,0,0.7-0.1,0.7-1v-4.9c0-0.8,0-0.9-0.7-0.9v-0.2l1.6-0.1
			c0,0.8-0.1,1.1-0.1,2V119.3z"/>
	</g>
</g>
<g id="DarkGrayishtone">
	<g id="Dkg3">
		<circle class="st0" cx="69.6" cy="165.8" r="20.5"/>
	</g>
	<g class="st1">
		<path d="M58.3,156.3c0,0.6-0.1,1.2-0.1,2v3.9c0,0.9,0,0.9,0.1,1.1c0.1,0.1,0.2,0.2,0.5,0.2h0.1v0.2l-1.4,0.1l0-0.9
			c-0.4,0.6-1,0.9-1.7,0.9c-0.6,0-1.1-0.3-1.5-0.7c-0.4-0.5-0.6-1.1-0.6-1.9c0-1.6,0.9-2.8,2.3-2.8c0.6,0,1,0.2,1.4,0.7v-1.5
			c0-1,0-1-0.7-1v-0.2L58.3,156.3z M56.1,158.7c-0.9,0-1.4,0.8-1.4,2.4c0,1.5,0.5,2.4,1.3,2.4c0.9,0,1.5-0.9,1.5-2.4
			C57.5,159.6,57,158.7,56.1,158.7z"/>
		<path d="M64.4,163.7c-0.4,0.1-0.8,0.1-1,0.1c-0.3,0-0.4-0.2-0.4-0.8c-0.2,0.2-0.3,0.3-0.5,0.4c-0.4,0.3-0.8,0.4-1.3,0.4
			c-0.4,0-0.8-0.1-1-0.3c-0.3-0.2-0.4-0.6-0.4-1.1c0-0.8,0.5-1.3,1.5-1.5c0.5-0.1,1-0.2,1.8-0.2V160c0-0.5,0-0.7-0.1-0.9
			c-0.1-0.3-0.4-0.4-0.8-0.4c-0.7,0-1,0.3-1,0.9c0,0.2,0,0.3-0.1,0.3c-0.1,0-0.2,0.1-0.3,0.1c-0.3,0-0.5-0.1-0.5-0.3
			c0-0.4,0.3-0.7,0.7-1c0.4-0.2,0.9-0.3,1.5-0.3c0.6,0,1.1,0.1,1.3,0.4c0.2,0.2,0.3,0.6,0.3,1.1c0,0,0,0,0,1l0,0.9l0,0.5
			c0,0.4,0,0.8,0.1,0.9c0.1,0.1,0.2,0.1,0.6,0.1V163.7z M62.9,160.9c-0.9,0.1-1.3,0.2-1.7,0.4c-0.4,0.2-0.7,0.6-0.7,1.1
			c0,0.6,0.3,1.1,0.8,1.1c0.5,0,1-0.3,1.3-0.7c0.2-0.3,0.2-0.7,0.2-1.4V160.9z"/>
		<path d="M66.6,158.5c0,0.5,0,0.6,0,0.8c0,0.1,0,0.2,0,0.3c0.3-0.8,0.9-1.2,1.5-1.2c0.4,0,0.8,0.3,0.8,0.6c0,0.2-0.2,0.4-0.5,0.4
			c-0.2,0-0.3-0.1-0.4-0.2c-0.1-0.2-0.1-0.3-0.3-0.3c-0.3,0-0.5,0.2-0.8,0.6c-0.2,0.3-0.3,0.7-0.3,1.3v1.6c0,0.9,0,1,0.7,1v0.2H65
			v-0.2c0.7,0,0.7-0.1,0.7-1v-2.7c0-0.7-0.1-0.9-0.7-0.9v-0.2L66.6,158.5z"/>
		<path d="M70.6,162.4c0,0.9,0.1,1,0.7,1v0.2h-2.2v-0.2c0.7,0,0.7-0.1,0.7-1v-4.9c0-0.8,0-0.9-0.7-0.9v-0.2l1.6-0.1
			c0,0.7-0.1,1.5-0.1,2v3.2l1.6-1.7c0.2-0.2,0.3-0.5,0.3-0.6c0-0.2-0.2-0.3-0.6-0.3v-0.2h2.2v0.2c-0.3,0-0.5,0.1-0.7,0.2
			c-0.3,0.2-0.4,0.2-1,0.9l-0.5,0.6l1.4,2.2c0.3,0.5,0.5,0.7,1,0.7v0.2h-1.4c-0.1-0.2-0.4-0.8-0.5-1l-1-1.7l-0.8,0.9V162.4z"/>
	</g>
	<g class="st1">
		<path d="M57.2,168c0.4,0.4,0.6,0.8,0.6,1.3c0,1.1-0.8,1.7-2,1.7c-0.3,0-0.5,0-0.9-0.1c-0.4,0.2-0.5,0.4-0.5,0.6
			c0,0.4,0.3,0.5,1.1,0.5c0.1,0,0.2,0,0.5,0c0.1,0,0.2,0,0.2,0c0.7,0,1,0,1.3,0.1c0.5,0.2,0.8,0.5,0.8,1.1c0,0.5-0.3,1-0.7,1.2
			c-0.5,0.3-1,0.4-1.8,0.4c-0.7,0-1.2-0.1-1.5-0.3c-0.4-0.2-0.5-0.5-0.5-1c0-0.4,0.1-0.5,0.7-0.9c-0.4-0.2-0.6-0.5-0.6-0.9
			c0-0.3,0.1-0.4,0.5-0.7l0.4-0.3c-0.3-0.2-0.4-0.3-0.5-0.4c-0.2-0.3-0.3-0.6-0.3-1c0-0.7,0.3-1.3,0.8-1.6c0.3-0.2,0.8-0.3,1.2-0.3
			c0.2,0,0.4,0,0.7,0.1c0.3,0,0.4,0.1,0.6,0.1c0.2,0,0.5,0,1.1,0v0.4H57.2z M54.4,173.5c0,0.7,0.5,1.1,1.5,1.1
			c1.1,0,1.7-0.4,1.7-1.1c0-0.4-0.2-0.6-0.8-0.7c-0.2,0-0.5,0-1.1,0c-0.3,0-1,0-1,0C54.5,172.8,54.4,173,54.4,173.5z M54.9,170.3
			c0.2,0.3,0.5,0.5,0.9,0.5c0.7,0,1.1-0.5,1.1-1.5c0-1-0.4-1.6-1.1-1.6c-0.7,0-1.1,0.5-1.1,1.5C54.7,169.7,54.8,170.1,54.9,170.3z"
			/>
		<path d="M60.4,167.5c0,0.5,0,0.6,0,0.8c0,0.1,0,0.2,0,0.3c0.3-0.8,0.9-1.2,1.5-1.2c0.4,0,0.8,0.3,0.8,0.6c0,0.2-0.2,0.4-0.5,0.4
			c-0.2,0-0.3-0.1-0.4-0.2c-0.1-0.2-0.1-0.3-0.3-0.3c-0.3,0-0.5,0.2-0.7,0.6c-0.2,0.3-0.3,0.7-0.3,1.3v1.6c0,0.9,0,1,0.7,1v0.2h-2.3
			v-0.2c0.7,0,0.7-0.1,0.7-1v-2.7c0-0.7-0.1-0.9-0.7-0.9v-0.2L60.4,167.5z"/>
		<path d="M67.8,172.7c-0.4,0.1-0.8,0.1-1,0.1c-0.3,0-0.4-0.2-0.4-0.8c-0.2,0.2-0.3,0.3-0.5,0.4c-0.4,0.3-0.8,0.4-1.3,0.4
			c-0.4,0-0.8-0.1-1-0.3c-0.3-0.2-0.4-0.6-0.4-1.1c0-0.8,0.5-1.3,1.5-1.5c0.5-0.1,1-0.2,1.8-0.2V169c0-0.5,0-0.7-0.1-0.9
			c-0.1-0.3-0.4-0.4-0.8-0.4c-0.7,0-1,0.3-1,0.9c0,0.2,0,0.3-0.1,0.3c-0.1,0-0.2,0.1-0.3,0.1c-0.3,0-0.5-0.1-0.5-0.3
			c0-0.4,0.3-0.7,0.7-1c0.4-0.2,0.9-0.3,1.5-0.3c0.6,0,1.1,0.1,1.3,0.4c0.2,0.2,0.3,0.6,0.3,1.1c0,0,0,0,0,1l0,0.9l0,0.5
			c0,0.4,0,0.8,0.1,0.9c0.1,0.1,0.2,0.1,0.6,0.1V172.7z M66.3,169.9c-0.9,0.1-1.3,0.2-1.7,0.4c-0.4,0.2-0.7,0.6-0.7,1.1
			c0,0.6,0.3,1.1,0.8,1.1c0.5,0,1-0.3,1.3-0.7c0.2-0.3,0.2-0.7,0.2-1.4V169.9z"/>
		<path d="M72.1,168.8c0.1-0.2,0.1-0.4,0.1-0.5c0-0.3-0.2-0.4-0.7-0.5v-0.2h1.9v0.2c-0.5,0-0.7,0.3-1,1.1l-1.9,4.8
			c-0.1,0.3-0.3,0.6-0.4,0.7c-0.2,0.2-0.5,0.3-0.8,0.3c-0.4,0-0.5-0.2-0.5-0.5c0-0.2,0.1-0.4,0.3-0.4c0,0,0.1,0,0.1,0
			c0.2,0,0.3,0,0.4,0c0.4,0,0.5-0.2,0.7-0.7l0.2-0.6l-1.5-3.9c-0.3-0.8-0.4-0.9-0.9-1v-0.2h2.2v0.2c-0.4,0-0.6,0.1-0.6,0.4
			c0,0.1,0,0.2,0.1,0.6l1.1,3L72.1,168.8z"/>
		<path d="M75.5,167.5c0,0.6-0.1,1.4-0.1,1.9v2c0,0.9,0,1,0.7,1v0.2h-2.3v-0.2c0.7,0,0.7-0.1,0.7-1v-2.7c0-0.5,0-0.7-0.2-0.8
			c-0.1-0.1-0.2-0.1-0.6-0.1v-0.2L75.5,167.5z M75,165.4c0.3,0,0.6,0.2,0.6,0.6c0,0.3-0.2,0.6-0.6,0.6c-0.3,0-0.6-0.2-0.6-0.6
			C74.4,165.6,74.7,165.4,75,165.4z"/>
		<path d="M77.1,171.1h0.3c0,0.5,0.1,0.7,0.3,0.9c0.3,0.4,0.6,0.5,1.1,0.5c0.7,0,1.1-0.4,1.1-0.9c0-0.2-0.1-0.5-0.2-0.6
			c-0.2-0.1-0.2-0.2-1.1-0.6c-1.1-0.5-1.4-0.8-1.4-1.5c0-0.4,0.1-0.7,0.3-0.9c0.3-0.4,0.7-0.6,1.2-0.6c0.3,0,0.4,0,0.9,0.1
			c0.1,0,0.2,0,0.2,0c0.1,0,0.3,0,0.5-0.1l0,1.6h-0.3c0-0.9-0.5-1.4-1.2-1.4c-0.6,0-1,0.3-1,0.9c0,0.2,0.1,0.4,0.3,0.5
			c0.2,0.1,0.4,0.2,1,0.5c0.7,0.3,0.9,0.4,1.1,0.7c0.2,0.2,0.3,0.6,0.3,0.9c0,0.9-0.6,1.5-1.5,1.5c-0.3,0-0.4,0-1-0.1
			c-0.1,0-0.3,0-0.4,0c-0.1,0-0.2,0-0.5,0L77.1,171.1z"/>
		<path d="M82.8,168.6c0.5-0.8,1-1.1,1.8-1.1c0.7,0,1.2,0.2,1.5,0.7c0.1,0.2,0.2,0.7,0.2,1.2v2c0,0.9,0,1,0.7,1v0.2h-2.3v-0.2
			c0.7,0,0.7-0.1,0.7-1v-2c0-0.5,0-0.9-0.2-1.1c-0.2-0.3-0.4-0.5-0.9-0.5c-0.4,0-0.8,0.1-1,0.4c-0.2,0.2-0.4,0.5-0.5,0.8
			c-0.1,0.2-0.1,0.4-0.1,0.7v1.6c0,0.9,0,1,0.7,1v0.2h-2.3v-0.2c0.7,0,0.7-0.1,0.7-1v-4.9c0-0.8,0-0.9-0.7-0.9v-0.2l1.6-0.1
			c0,0.8,0,1.1,0,2V168.6z"/>
	</g>
</g>
<g id="Whitetone">
	<g id="White3">
		<circle class="st0" cx="25.3" cy="23.4" r="20.9"/>
	</g>
	<g class="st1">
		<path d="M12.7,27.6h-0.6l-1.5-5c-0.2-0.7-0.3-0.8-0.9-0.9v-0.3h2.7v0.3c-0.6,0-0.8,0.1-0.8,0.4c0,0.1,0,0.3,0.1,0.5l1.1,3.8
			l1.6-4.8h0.5l1.5,4.8l1-3.5c0.1-0.3,0.1-0.5,0.1-0.7c0-0.2-0.1-0.4-0.3-0.4c-0.1,0-0.2-0.1-0.5-0.1v-0.3H19v0.3
			c-0.7,0-0.9,0.3-1.2,1.2l-1.5,4.7h-0.6L14.3,23L12.7,27.6z"/>
		<path d="M21.3,22.6c0.6-0.9,1.2-1.3,2.1-1.3c0.9,0,1.5,0.3,1.8,0.9c0.1,0.3,0.2,0.8,0.2,1.5V26c0,1.1,0.1,1.2,0.9,1.2v0.3h-2.7
			v-0.3c0.8,0,0.9-0.1,0.9-1.2v-2.4c0-0.6-0.1-1.1-0.2-1.3c-0.2-0.4-0.5-0.6-1.1-0.6c-0.5,0-0.9,0.2-1.2,0.5c-0.2,0.3-0.4,0.6-0.6,1
			c-0.1,0.3-0.1,0.5-0.1,0.9V26c0,1.1,0.1,1.2,0.9,1.2v0.3h-2.7v-0.3c0.8,0,0.9-0.1,0.9-1.2v-5.8c0-1,0-1.1-0.9-1.1v-0.3l1.9-0.1
			c0,0.9-0.1,1.4-0.1,2.4V22.6z"/>
		<path d="M28.9,21.3c0,0.7-0.1,1.7-0.1,2.2V26c0,1.1,0.1,1.2,0.9,1.2v0.3h-2.7v-0.3c0.8,0,0.9-0.1,0.9-1.2v-3.2c0-0.6,0-0.9-0.2-1
			c-0.1-0.1-0.3-0.1-0.7-0.1v-0.3L28.9,21.3z M28.3,18.8c0.4,0,0.7,0.3,0.7,0.7c0,0.4-0.3,0.7-0.7,0.7c-0.4,0-0.7-0.3-0.7-0.7
			C27.6,19.1,27.9,18.8,28.3,18.8z"/>
		<path d="M32.3,25.8c0,0.7,0,1,0.2,1.2s0.3,0.3,0.6,0.3c0.3,0,0.5-0.1,0.8-0.2l0.1,0.3c-0.4,0.2-0.8,0.3-1.2,0.3
			c-0.6,0-1-0.2-1.2-0.6c-0.1-0.2-0.2-0.5-0.2-1.4v-3.9h-0.8v-0.3c0.7-0.1,1.1-0.5,1.2-1.7l0.6-0.2c0,0.5,0,1,0,1.8h1.4v0.3h-1.4
			V25.8z"/>
		<path d="M35.8,24.1c0,0.8,0.1,1.3,0.3,1.8c0.3,0.9,0.9,1.3,1.8,1.3c0.9,0,1.5-0.4,2-1.4l0.3,0.2c-0.5,1.1-1.4,1.6-2.5,1.6
			c-1.7,0-2.9-1.3-2.9-3.1c0-1.9,1.2-3.3,2.8-3.3c1.1,0,1.9,0.6,2.3,1.5c0.1,0.3,0.2,0.6,0.2,1.3H35.8z M39,23.8
			c0-0.6-0.1-1-0.2-1.3c-0.3-0.6-0.7-0.9-1.2-0.9c-0.6,0-1.1,0.3-1.4,0.9c-0.2,0.3-0.3,0.7-0.3,1.3H39z"/>
	</g>
</g>
<g id="Blacktone">
	<g id="Black3">
		<circle class="st2" cx="25.3" cy="169.9" r="20.9"/>
	</g>
	<g class="st1">
		<path class="st3" d="M11.4,174.7h-0.3c0-0.5,0-0.6,0-2.1v-5.2c0-1,0-1.1-0.9-1.1V166l1.9-0.1c0,0.8-0.1,1.8-0.1,2.4v1.3
			c0.5-0.8,1.1-1.2,1.9-1.2c1.6,0,2.6,1.2,2.6,3.1c0,2-1,3.3-2.7,3.3c-0.8,0-1.4-0.3-2-0.9L11.4,174.7z M12.5,173.8
			c0.3,0.5,0.8,0.8,1.4,0.8c1.1,0,1.7-1,1.7-2.9c0-1.9-0.5-2.9-1.6-2.9c-1.2,0-1.8,1.1-1.8,3C12.1,172.7,12.2,173.3,12.5,173.8z"/>
		<path class="st3" d="M17.7,174.4c0.8,0,0.9-0.1,0.9-1.2v-5.8c0-0.6,0-0.9-0.2-1c-0.1-0.1-0.3-0.1-0.7-0.1V166l1.9-0.1
			c0,0.8-0.1,1.8-0.1,2.4v4.9c0,1.1,0.1,1.2,0.9,1.2v0.3h-2.7V174.4z"/>
		<path class="st3" d="M26.9,174.7c-0.5,0.1-1,0.1-1.2,0.1c-0.4,0-0.5-0.2-0.5-1c-0.2,0.2-0.3,0.3-0.6,0.5c-0.5,0.4-0.9,0.5-1.6,0.5
			c-0.5,0-0.9-0.1-1.2-0.4c-0.3-0.3-0.5-0.8-0.5-1.3c0-0.9,0.6-1.6,1.8-1.8c0.6-0.1,1.3-0.2,2.1-0.3v-0.8c0-0.6,0-0.8-0.2-1.1
			c-0.2-0.3-0.5-0.5-1-0.5c-0.8,0-1.2,0.4-1.2,1.1c0,0.3,0,0.3-0.1,0.4c-0.1,0.1-0.2,0.1-0.4,0.1c-0.4,0-0.6-0.1-0.6-0.4
			c0-0.4,0.3-0.9,0.8-1.2c0.5-0.3,1-0.4,1.8-0.4c0.8,0,1.3,0.2,1.6,0.5c0.2,0.3,0.3,0.7,0.3,1.4c0,0,0,0,0,1.2l0,1.1l0,0.6
			c0,0.5,0.1,0.9,0.1,1s0.2,0.1,0.7,0.1V174.7z M25.2,171.4c-1.1,0.1-1.5,0.2-2,0.4c-0.5,0.3-0.8,0.7-0.8,1.4c0,0.8,0.4,1.3,1,1.3
			c0.6,0,1.2-0.4,1.5-0.9c0.2-0.3,0.3-0.8,0.3-1.6V171.4z"/>
		<path class="st3" d="M33.3,173.2c-0.5,1.1-1.3,1.7-2.5,1.7c-1.7,0-2.9-1.3-2.9-3.1c0-2,1.2-3.3,2.9-3.3c0.7,0,1.3,0.2,1.8,0.6
			c0.3,0.3,0.5,0.6,0.5,0.9c0,0.2-0.2,0.4-0.6,0.4c-0.2,0-0.3,0-0.4-0.1c-0.1-0.1-0.1-0.1-0.1-0.4c-0.1-0.7-0.6-1.1-1.3-1.1
			c-1.1,0-1.7,1-1.7,2.7c0,1.8,0.8,2.9,2,2.9c0.9,0,1.5-0.5,1.9-1.5L33.3,173.2z"/>
		<path class="st3" d="M35.8,173.2c0,1.1,0.1,1.2,0.9,1.2v0.3H34v-0.3c0.8,0,0.9-0.1,0.9-1.2v-5.8c0-1,0-1.1-0.9-1.1V166l1.9-0.1
			c0,0.8-0.1,1.8-0.1,2.4v3.8l1.9-2.1c0.3-0.3,0.4-0.6,0.4-0.7c0-0.3-0.2-0.4-0.8-0.4v-0.3H40v0.3c-0.3,0-0.5,0.1-0.8,0.3
			c-0.4,0.3-0.5,0.3-1.2,1.1l-0.6,0.7l1.7,2.6c0.4,0.6,0.6,0.8,1.1,0.9v0.3h-1.6c-0.1-0.3-0.5-0.9-0.6-1.2l-1.2-2l-0.9,1V173.2z"/>
	</g>
</g>
</svg>
