<?xml version="1.0" encoding="utf-8"?>
<!-- Generator: Adobe Illustrator 20.1.0, SVG Export Plug-In . SVG Version: 6.00 Build 0)  -->
<svg version="1.1" id="base3" xmlns="http://www.w3.org/2000/svg" xmlns:xlink="http://www.w3.org/1999/xlink" x="0px" y="0px"
	 viewBox="0 0 222.2 194" style="enable-background:new 0 0 222.2 194;" xml:space="preserve">
<style type="text/css">
	.st0{fill:#FFFFFF;stroke:#231815;stroke-miterlimit:10;}
	.st1{font-family:'HiraMinProN-W3-83pv-RKSJ-H';}
	.st2{font-size:12px;}
	.st3{font-size:10px;}
	.st4{fill:#231815;stroke:#231815;stroke-miterlimit:10;}
	.st5{fill:#FFFFFF;}
</style>
<title>ColorCircle6</title>
<g id="Vividtone">
	<g id="Vivid3">
		<circle class="st0" cx="198.8" cy="100.6" r="20.9"/>
	</g>
	<text transform="matrix(1 0 0 1 185.3919 104.9207)" class="st1 st2">vivid</text>
</g>
<g id="Brighttone">
	<g id="Bright3">
		<circle class="st0" cx="158.2" cy="53.9" r="20.5"/>
	</g>
	<text transform="matrix(1 0 0 1 141.2681 58.1894)" class="st1 st2">bright</text>
</g>
<g id="Strongtone">
	<g id="Strong3">
		<circle class="st0" cx="152.8" cy="98.2" r="20.5"/>
	</g>
	<text transform="matrix(1 0 0 1 135.0035 101.8528)" class="st1 st2">strong</text>
</g>
<g id="Deeptone">
	<g id="Deep3">
		<circle class="st0" cx="158.2" cy="142.5" r="20.5"/>
	</g>
	<text transform="matrix(1 0 0 1 144.4812 146.9335)" class="st1 st2">deep</text>
</g>
<g id="Lighttone">
	<g id="Light3">
		<circle class="st0" cx="117.3" cy="30.6" r="20.5"/>
	</g>
	<text transform="matrix(1 0 0 1 104.4007 34.8612)" class="st1 st2">light</text>
</g>
<g id="Softtone">
	<g id="Soft3">
		<circle class="st0" cx="112.5" cy="74.4" r="20.5"/>
	</g>
	<text transform="matrix(1 0 0 1 101.6817 77.6872)" class="st1 st2">soft</text>
</g>
<g id="Dulltone">
	<g id="Dull3">
		<circle class="st0" cx="112.5" cy="120.1" r="19.8"/>
	</g>
	<text transform="matrix(1 0 0 1 101.3714 123.8622)" class="st1 st2">dull</text>
</g>
<g id="Darktone">
	<g id="Dark3">
		<circle class="st0" cx="117.3" cy="163.4" r="20.5"/>
	</g>
	<text transform="matrix(1 0 0 1 104.3885 167.4588)" class="st1 st2">dark</text>
</g>
<g id="Paletone">
	<g id="Pale3">
		<circle class="st0" cx="69.6" cy="28.4" r="19.8"/>
	</g>
	<text transform="matrix(1 0 0 1 58.1897 31.3578)" class="st1 st2">pale</text>
</g>
<g id="LightGrayishtone">
	<g id="Ltg3">
		<circle class="st0" cx="69.6" cy="74.4" r="20.5"/>
	</g>
	<text transform="matrix(1 0 0 1 53.1365 72.7747)" class="st1 st3">light</text>
	<text transform="matrix(1 0 0 1 53.1365 81.7747)" class="st1 st3">grayish</text>
</g>
<g id="Grayishtone">
	<g id="Grayish3">
		<circle class="st0" cx="69.6" cy="120.6" r="20"/>
	</g>
	<text transform="matrix(1 0 0 1 52.7551 123.7792)" class="st1 st3">grayish</text>
</g>
<g id="DarkGrayishtone">
	<g id="Dkg3">
		<circle class="st0" cx="69.6" cy="165.8" r="20.5"/>
	</g>
	<text transform="matrix(1 0 0 1 53.1941 164.0038)" class="st1 st3">dark</text>
	<text transform="matrix(1 0 0 1 53.1941 173.0038)" class="st1 st3">grayish</text>
</g>
<g id="Whitetone">
	<g id="White3">
		<circle class="st0" cx="25.3" cy="23.4" r="20.9"/>
	</g>
	<text transform="matrix(1 0 0 1 9.5822 27.9115)" class="st1 st2">white</text>
</g>
<g id="Blacktone">
	<g id="Black3">
		<circle class="st4" cx="25.3" cy="169.9" r="20.9"/>
	</g>
	<text transform="matrix(1 0 0 1 10.0282 175.0977)" class="st5 st1 st2">black</text>
</g>
</svg>
